<svg xmlns="http://www.w3.org/2000/svg" viewBox="0 0 100 100" width="100" height="100">
  <!-- Book -->
  <rect x="15" y="20" width="70" height="60" rx="6" fill="#2D2A24" stroke="#4A453E" stroke-width="1.2"/>
  
  <!-- Pages -->
  <path d="M20 25 L85 25 M20 30 L85 30 M20 35 L85 35 M20 40 L85 40 M20 45 L85 45 M20 50 L85 50 M20 55 L85 55 M20 60 L85 60 M20 65 L85 65 M20 70 L85 70" stroke="#5A554E" stroke-width="0.5"/>
  
  <!-- Pen -->
  <path d="M55 10 L65 20 L60 25 L50 15 Z" fill="#FF9E6D"/>
  <path d="M55 10 L50 15 L45 10 L50 5 Z" fill="#D2691E"/>
  
  <!-- Ink line -->
  <path d="M60 25 Q65 35,70 45 Q75 55,75 65 Q70 75,65 80" stroke="#B0A8A0" stroke-width="2" fill="none" stroke-linecap="round"/>
  
  <!-- Sparkles -->
  <circle cx="70" cy="35" r="2.5" fill="#FFE082"/>
  <circle cx="60" cy="55" r="1.8" fill="#FFE082"/>
  <circle cx="75" cy="65" r="2" fill="#FFE082"/>
</svg>